<svg id="svg" version="1.1" xmlns="http://www.w3.org/2000/svg" xmlns:xlink="http://www.w3.org/1999/xlink" width="150" height="80" viewBox="0, 0, 400,236.55172413793105"><g id="svgg"><path id="path0" d="M142.959 6.462 C 142.959 6.761,143.055 7.107,143.173 7.231 C 143.404 7.473,144.268 9.040,146.038 12.426 C 146.650 13.598,147.445 15.089,147.805 15.740 C 148.456 16.916,149.822 19.500,152.187 24.024 C 152.867 25.325,153.505 26.497,153.605 26.627 C 153.763 26.833,154.894 28.902,155.766 30.578 C 155.922 30.878,156.135 31.284,156.240 31.479 C 156.345 31.675,156.699 32.367,157.028 33.018 C 157.357 33.669,158.012 34.893,158.484 35.740 C 158.955 36.586,159.849 38.237,160.470 39.408 C 161.090 40.580,161.947 42.178,162.374 42.959 C 163.688 45.364,165.391 48.578,166.039 49.877 C 166.379 50.558,166.757 51.176,166.879 51.252 C 167.001 51.327,167.101 51.596,167.101 51.848 C 167.101 52.101,167.185 52.308,167.288 52.308 C 167.391 52.308,167.768 52.920,168.125 53.669 C 168.483 54.417,169.244 55.882,169.816 56.923 C 170.389 57.964,171.129 59.349,171.461 60.000 C 171.794 60.651,172.595 62.142,173.242 63.314 C 173.890 64.485,174.822 66.243,175.315 67.219 C 175.807 68.195,176.265 69.047,176.333 69.112 C 176.400 69.178,176.752 69.817,177.116 70.533 C 177.480 71.249,178.243 72.686,178.811 73.728 C 179.379 74.769,180.119 76.174,180.455 76.850 C 180.791 77.526,181.172 78.145,181.302 78.225 C 181.432 78.305,181.538 78.569,181.538 78.811 C 181.538 79.053,181.626 79.286,181.732 79.329 C 181.839 79.373,182.248 80.047,182.641 80.828 C 183.451 82.436,185.943 87.105,187.694 90.296 C 188.052 90.947,188.837 92.417,189.439 93.562 L 190.535 95.645 190.474 123.030 L 190.414 150.414 170.059 150.539 C 155.622 150.628,149.463 150.744,148.876 150.937 C 148.006 151.224,145.632 151.623,142.840 151.952 C 141.929 152.060,140.884 152.263,140.517 152.405 C 140.151 152.547,139.395 152.663,138.839 152.663 C 138.282 152.663,137.304 152.821,136.665 153.015 C 136.026 153.209,135.067 153.369,134.535 153.370 C 134.002 153.372,133.044 153.531,132.404 153.725 C 131.765 153.919,130.710 154.082,130.059 154.088 C 127.891 154.106,128.047 153.148,128.047 166.460 C 128.047 173.480,127.955 178.437,127.817 178.799 L 127.588 179.403 71.156 179.465 C 17.793 179.523,14.699 179.549,14.267 179.941 C 14.015 180.169,13.464 180.355,13.041 180.355 C 12.619 180.355,12.114 180.515,11.919 180.710 C 11.724 180.905,11.225 181.068,10.811 181.073 C 10.398 181.077,9.852 181.237,9.600 181.428 C 9.347 181.619,8.814 181.779,8.416 181.783 C 8.018 181.787,7.486 181.947,7.233 182.138 C 6.980 182.329,6.501 182.489,6.168 182.493 C 5.835 182.497,5.355 182.657,5.103 182.848 C 4.850 183.039,4.355 183.195,4.004 183.195 C 3.043 183.195,3.077 182.283,3.077 208.062 L 3.077 232.180 3.728 232.362 C 4.580 232.601,394.711 232.600,395.563 232.362 L 396.215 232.180 396.155 207.747 L 396.095 183.314 395.343 183.241 C 394.930 183.201,394.464 183.014,394.308 182.827 C 394.152 182.639,393.685 182.485,393.271 182.485 C 392.856 182.485,392.310 182.329,392.057 182.138 C 391.804 181.947,391.259 181.787,390.845 181.783 C 390.432 181.779,389.933 181.615,389.738 181.420 C 389.543 181.225,389.016 181.065,388.567 181.065 C 388.118 181.065,387.618 180.905,387.456 180.710 C 387.294 180.515,386.783 180.355,386.321 180.355 C 385.853 180.355,385.278 180.172,385.023 179.941 C 384.591 179.549,381.448 179.520,328.082 179.408 L 271.598 179.290 271.536 167.117 C 271.466 153.133,271.626 154.083,269.342 154.083 C 268.598 154.083,267.536 153.923,266.982 153.728 C 266.429 153.533,265.483 153.372,264.881 153.370 C 264.280 153.369,263.264 153.209,262.625 153.015 C 261.986 152.821,261.008 152.663,260.451 152.663 C 259.895 152.663,259.139 152.542,258.773 152.395 C 258.406 152.248,257.361 152.046,256.450 151.945 C 254.466 151.727,252.051 151.331,249.907 150.870 C 248.616 150.593,244.791 150.533,228.563 150.533 C 210.306 150.533,208.761 150.502,208.391 150.132 C 208.031 149.772,208.005 149.241,208.135 144.866 C 208.215 142.190,208.343 130.254,208.419 118.343 L 208.557 96.686 209.851 94.083 C 210.563 92.651,211.670 90.521,212.312 89.349 C 212.953 88.178,213.880 86.420,214.372 85.444 C 214.864 84.467,215.319 83.615,215.384 83.550 C 215.450 83.485,215.863 82.740,216.303 81.893 C 217.721 79.169,218.716 77.311,219.535 75.858 C 219.976 75.077,220.401 74.278,220.481 74.083 C 220.561 73.888,220.720 73.568,220.836 73.373 C 220.951 73.178,221.352 72.432,221.726 71.716 C 222.101 71.000,222.817 69.669,223.318 68.757 C 223.819 67.846,224.696 66.195,225.267 65.089 C 226.601 62.506,228.353 59.204,229.349 57.396 C 229.779 56.615,230.631 55.018,231.243 53.846 C 231.854 52.675,232.704 51.077,233.133 50.296 C 234.032 48.656,235.753 45.436,236.737 43.550 C 237.111 42.834,237.511 42.089,237.626 41.893 C 237.741 41.698,237.900 41.379,237.979 41.183 C 238.057 40.988,238.600 39.976,239.184 38.935 C 239.768 37.893,240.360 36.749,240.501 36.391 C 240.641 36.033,240.852 35.740,240.970 35.740 C 241.087 35.740,241.183 35.533,241.183 35.280 C 241.183 35.028,241.278 34.762,241.394 34.691 C 241.510 34.619,242.048 33.681,242.589 32.606 C 243.131 31.530,243.923 30.012,244.351 29.231 C 245.316 27.469,247.257 23.818,248.315 21.775 C 248.754 20.929,249.166 20.183,249.231 20.118 C 249.296 20.053,249.652 19.414,250.022 18.698 C 250.790 17.212,252.967 13.108,254.103 11.006 C 255.594 8.246,256.568 6.314,256.568 6.117 C 256.568 6.007,252.168 5.917,246.790 5.917 L 237.012 5.917 236.494 6.618 C 236.209 7.003,235.976 7.407,235.976 7.516 C 235.976 7.625,235.481 8.668,234.876 9.833 C 233.617 12.257,222.289 34.716,214.288 50.651 C 211.313 56.574,208.826 61.473,208.759 61.538 C 208.532 61.761,207.574 63.839,207.574 64.109 C 207.574 64.257,207.467 64.379,207.337 64.379 C 207.207 64.379,207.101 64.579,207.101 64.823 C 207.101 65.068,206.941 65.400,206.746 65.562 C 206.550 65.724,206.391 65.987,206.391 66.146 C 206.391 66.304,206.126 66.904,205.802 67.478 C 205.478 68.051,205.146 68.680,205.064 68.876 C 204.898 69.270,203.982 71.223,202.123 75.147 C 201.445 76.579,200.799 77.990,200.688 78.284 C 200.445 78.921,199.568 79.001,199.386 78.402 C 199.316 78.175,199.115 77.669,198.937 77.278 C 198.760 76.888,198.437 76.142,198.219 75.621 C 198.002 75.101,197.557 74.089,197.230 73.373 C 196.904 72.657,196.443 71.645,196.207 71.124 C 194.619 67.632,194.013 66.348,191.907 62.012 C 190.611 59.343,189.458 57.000,189.343 56.805 C 189.229 56.609,188.910 55.970,188.634 55.385 C 188.358 54.799,188.033 54.160,187.911 53.964 C 187.789 53.769,187.629 53.450,187.555 53.254 C 187.482 53.059,187.322 52.740,187.200 52.544 C 187.079 52.349,186.914 52.030,186.834 51.834 C 186.353 50.660,185.728 49.452,185.542 49.336 C 185.423 49.263,185.325 48.996,185.325 48.743 C 185.325 48.491,185.219 48.284,185.089 48.284 C 184.959 48.284,184.852 48.166,184.852 48.023 C 184.852 47.879,181.221 40.450,176.783 31.514 C 168.129 14.087,168.399 14.628,165.752 9.408 L 163.982 5.917 153.470 5.917 L 142.959 5.917 142.959 6.462 " stroke="none" fill="#fcf8f6" fill-rule="evenodd"></path><path id="path1" d="M0.000 118.343 L 0.000 236.686 200.000 236.686 L 400.000 236.686 400.000 118.343 L 400.000 0.000 200.000 0.000 L 0.000 0.000 0.000 118.343 M164.482 5.780 C 164.877 6.257,166.389 9.296,166.390 9.616 C 166.390 9.763,166.550 10.015,166.746 10.178 C 166.941 10.340,167.101 10.659,167.101 10.888 C 167.101 11.116,167.260 11.436,167.456 11.598 C 167.651 11.760,167.811 12.079,167.811 12.308 C 167.811 12.536,167.970 12.856,168.166 13.018 C 168.361 13.180,168.521 13.512,168.521 13.757 C 168.521 14.001,168.627 14.201,168.757 14.201 C 168.888 14.201,168.994 14.325,168.994 14.477 C 168.994 14.838,171.427 19.740,171.657 19.842 C 171.754 19.886,171.834 20.030,171.834 20.163 C 171.834 20.297,172.793 22.329,173.964 24.680 C 175.136 27.031,176.095 29.088,176.095 29.250 C 176.095 29.413,176.181 29.582,176.287 29.625 C 176.512 29.718,181.538 39.811,181.538 40.171 C 181.538 40.306,181.698 40.548,181.893 40.710 C 182.089 40.872,182.249 41.192,182.249 41.420 C 182.249 41.649,182.408 41.968,182.604 42.130 C 182.799 42.292,182.959 42.625,182.959 42.869 C 182.959 43.114,183.039 43.314,183.137 43.314 C 183.336 43.314,184.379 45.478,184.379 45.892 C 184.379 46.036,184.485 46.154,184.615 46.154 C 184.746 46.154,184.852 46.275,184.852 46.424 C 184.852 46.691,185.807 48.767,186.035 48.994 C 186.100 49.059,186.510 49.858,186.945 50.769 C 188.019 53.015,188.015 53.008,188.577 54.083 C 188.849 54.604,189.299 55.509,189.577 56.095 C 189.855 56.680,190.178 57.320,190.295 57.515 C 190.612 58.046,195.143 67.393,195.745 68.757 C 196.032 69.408,196.530 70.527,196.852 71.243 C 197.174 71.959,197.577 72.864,197.748 73.254 C 197.919 73.645,198.246 74.391,198.474 74.911 C 198.702 75.432,199.032 76.141,199.208 76.486 C 199.383 76.832,199.527 77.284,199.527 77.492 C 199.527 78.204,200.424 77.924,200.592 77.160 C 200.677 76.769,200.846 76.450,200.966 76.450 C 201.085 76.450,201.183 76.291,201.183 76.098 C 201.183 75.905,201.491 75.133,201.866 74.382 C 202.241 73.632,203.214 71.633,204.027 69.941 C 206.610 64.563,207.689 62.370,207.811 62.249 C 207.876 62.183,208.285 61.385,208.720 60.473 C 209.156 59.562,209.598 58.657,209.704 58.462 C 209.810 58.266,212.327 53.260,215.297 47.337 C 218.268 41.414,220.925 36.195,221.202 35.740 C 221.479 35.284,221.789 34.645,221.891 34.320 C 221.992 33.994,222.142 33.675,222.222 33.609 C 222.303 33.544,223.267 31.680,224.364 29.467 C 225.462 27.254,226.447 25.408,226.553 25.365 C 226.659 25.321,226.745 25.162,226.744 25.010 C 226.743 24.651,231.069 16.001,231.302 15.897 C 231.399 15.854,231.479 15.622,231.479 15.382 C 231.479 15.142,231.634 14.791,231.823 14.602 C 232.011 14.413,232.236 13.979,232.322 13.638 C 232.407 13.297,232.572 13.018,232.688 13.018 C 232.804 13.018,232.899 12.811,232.899 12.558 C 232.899 12.306,232.989 12.044,233.098 11.976 C 233.208 11.908,234.016 10.411,234.894 8.648 L 236.490 5.444 246.752 5.444 C 253.423 5.444,257.065 5.528,257.162 5.683 C 257.333 5.961,256.571 7.811,256.286 7.811 C 256.181 7.811,256.095 8.002,256.095 8.237 C 256.095 8.471,255.990 8.768,255.861 8.896 C 255.733 9.025,255.174 10.007,254.619 11.078 C 254.064 12.150,253.184 13.850,252.664 14.857 C 252.144 15.863,251.662 16.740,251.593 16.805 C 251.524 16.870,251.061 17.722,250.565 18.698 C 249.570 20.656,248.495 22.690,246.749 25.917 C 244.280 30.479,242.243 34.316,241.343 36.095 C 240.948 36.876,240.537 37.550,240.431 37.594 C 240.324 37.637,240.237 37.864,240.237 38.097 C 240.237 38.331,240.087 38.646,239.905 38.797 C 239.722 38.949,239.507 39.335,239.427 39.655 C 239.347 39.975,239.176 40.237,239.049 40.237 C 238.921 40.237,238.817 40.428,238.817 40.663 C 238.817 40.897,238.714 41.191,238.589 41.317 C 238.463 41.442,237.838 42.555,237.199 43.790 C 234.849 48.334,234.435 49.115,234.319 49.231 C 234.254 49.296,233.954 49.828,233.652 50.414 C 233.351 51.000,232.584 52.438,231.949 53.609 C 231.313 54.781,230.727 55.899,230.646 56.095 C 230.565 56.290,230.404 56.609,230.289 56.805 C 230.173 57.000,229.772 57.746,229.397 58.462 C 229.021 59.178,228.271 60.589,227.730 61.598 C 227.189 62.607,226.303 64.257,225.761 65.266 C 225.220 66.275,224.470 67.686,224.094 68.402 C 223.409 69.709,223.157 70.179,222.726 70.947 C 222.598 71.175,222.220 71.893,221.885 72.544 C 221.550 73.195,220.809 74.580,220.238 75.621 C 219.667 76.663,218.902 78.101,218.537 78.817 C 218.173 79.533,217.820 80.172,217.754 80.237 C 217.634 80.354,216.846 81.859,214.407 86.627 C 213.708 87.994,213.083 89.166,213.018 89.231 C 212.953 89.296,212.633 89.882,212.308 90.533 C 211.982 91.183,211.663 91.769,211.598 91.834 C 211.533 91.899,211.114 92.698,210.667 93.609 C 210.221 94.521,209.688 95.464,209.484 95.705 C 209.113 96.143,208.750 148.053,209.107 149.515 L 209.234 150.035 230.002 150.123 C 245.659 150.190,251.002 150.284,251.716 150.505 C 252.237 150.667,253.355 150.889,254.201 150.998 C 256.308 151.271,258.747 151.685,260.626 152.088 C 261.490 152.274,262.642 152.426,263.186 152.426 C 263.729 152.426,264.390 152.542,264.656 152.684 C 264.921 152.826,265.899 153.027,266.829 153.131 C 269.378 153.416,271.577 153.880,271.772 154.175 C 271.867 154.319,271.947 159.896,271.949 166.568 L 271.953 178.698 327.800 178.698 C 362.024 178.698,383.857 178.784,384.190 178.920 C 384.489 179.042,385.533 179.369,386.509 179.647 C 387.485 179.925,388.497 180.245,388.757 180.358 C 389.018 180.471,389.600 180.637,390.051 180.726 C 390.503 180.816,391.035 180.967,391.235 181.062 C 391.884 181.372,394.018 182.012,394.403 182.012 C 394.610 182.012,395.208 182.236,395.732 182.509 L 396.686 183.006 396.686 207.945 C 396.686 232.358,396.677 232.888,396.229 233.128 C 395.587 233.471,3.703 233.471,3.061 233.128 C 2.613 232.888,2.604 232.358,2.604 207.927 L 2.604 182.970 3.656 182.491 C 4.234 182.228,4.974 182.012,5.298 182.012 C 5.623 182.012,5.950 181.914,6.024 181.793 C 6.099 181.673,6.504 181.504,6.926 181.416 C 7.836 181.228,9.909 180.597,10.423 180.351 C 10.624 180.255,11.235 180.101,11.783 180.009 C 12.331 179.916,12.833 179.752,12.899 179.645 C 12.966 179.537,13.472 179.375,14.025 179.284 C 14.577 179.193,15.147 179.024,15.290 178.909 C 15.439 178.789,39.511 178.674,71.503 178.640 L 127.456 178.580 127.574 166.272 L 127.692 153.964 129.112 153.657 C 129.893 153.489,131.278 153.261,132.189 153.151 C 133.101 153.042,134.325 152.840,134.911 152.703 C 136.285 152.381,138.848 151.961,140.947 151.715 C 141.858 151.609,142.903 151.405,143.270 151.264 C 143.636 151.122,144.435 151.005,145.045 151.003 C 145.655 151.002,146.686 150.820,147.337 150.598 C 148.408 150.234,150.471 150.187,168.986 150.114 C 184.036 150.054,189.538 149.960,189.781 149.759 C 190.267 149.355,189.936 95.868,189.441 94.793 C 189.261 94.402,188.481 92.911,187.707 91.479 C 186.933 90.047,185.894 88.077,185.398 87.101 C 184.903 86.124,184.431 85.272,184.351 85.207 C 184.270 85.142,183.927 84.503,183.589 83.787 C 183.251 83.071,182.641 81.899,182.234 81.183 C 181.377 79.675,180.694 78.377,180.492 77.870 C 180.414 77.675,180.146 77.195,179.896 76.805 C 179.647 76.414,178.999 75.243,178.456 74.201 C 177.914 73.160,177.007 71.456,176.440 70.414 C 175.874 69.373,175.113 67.935,174.749 67.219 C 174.385 66.503,174.033 65.864,173.966 65.799 C 173.899 65.734,173.418 64.857,172.898 63.851 C 172.378 62.844,171.499 61.144,170.944 60.072 C 170.389 59.001,169.829 58.019,169.701 57.890 C 169.573 57.762,169.467 57.465,169.467 57.231 C 169.467 56.996,169.371 56.805,169.254 56.805 C 169.136 56.805,168.921 56.512,168.775 56.154 C 168.628 55.796,168.129 54.811,167.665 53.964 C 167.200 53.118,166.451 51.734,165.999 50.888 C 165.547 50.041,164.652 48.391,164.010 47.219 C 163.368 46.047,162.569 44.532,162.235 43.851 C 161.901 43.170,161.527 42.551,161.405 42.476 C 161.283 42.401,161.183 42.141,161.183 41.899 C 161.183 41.657,161.096 41.424,160.989 41.381 C 160.883 41.337,160.474 40.663,160.082 39.882 C 159.689 39.101,159.016 37.822,158.585 37.041 C 158.154 36.260,157.281 34.611,156.644 33.376 C 156.007 32.141,155.383 31.028,155.258 30.903 C 155.132 30.777,155.030 30.483,155.030 30.249 C 155.030 30.014,154.925 29.822,154.797 29.822 C 154.670 29.822,154.499 29.561,154.419 29.240 C 154.339 28.920,154.124 28.535,153.941 28.383 C 153.759 28.232,153.609 27.908,153.609 27.663 C 153.609 27.419,153.525 27.219,153.422 27.219 C 153.319 27.219,153.073 26.873,152.875 26.450 C 152.473 25.589,150.543 21.934,149.345 19.763 C 148.914 18.982,148.255 17.757,147.880 17.041 C 147.053 15.461,146.895 15.164,146.556 14.556 C 146.411 14.296,145.888 13.284,145.395 12.308 C 144.901 11.331,144.435 10.479,144.360 10.414 C 144.284 10.349,143.967 9.763,143.655 9.112 C 143.343 8.462,142.838 7.520,142.533 7.019 C 141.526 5.368,141.010 5.444,153.218 5.444 C 162.425 5.444,164.248 5.498,164.482 5.780 " stroke="none" fill="#f46404" fill-rule="evenodd"></path><path id="path2" d="M142.106 5.777 C 142.036 5.960,142.228 6.519,142.533 7.019 C 142.838 7.520,143.343 8.462,143.655 9.112 C 143.967 9.763,144.284 10.349,144.360 10.414 C 144.435 10.479,144.904 11.356,145.402 12.363 C 145.899 13.370,146.405 14.255,146.526 14.330 C 146.802 14.501,146.814 14.136,146.543 13.834 C 146.354 13.624,144.668 10.521,143.151 7.590 C 142.785 6.883,142.485 6.164,142.485 5.992 C 142.485 5.443,163.834 5.544,164.303 6.095 C 164.497 6.322,165.172 7.569,165.803 8.866 C 166.433 10.162,166.994 11.088,167.049 10.923 C 167.104 10.758,166.978 10.435,166.770 10.204 C 166.561 9.974,166.390 9.687,166.390 9.567 C 166.389 9.283,164.844 6.217,164.482 5.780 C 164.066 5.280,142.298 5.277,142.106 5.777 M235.005 8.462 C 234.181 10.121,233.360 11.660,233.179 11.880 C 232.999 12.100,232.894 12.411,232.947 12.570 C 233.001 12.730,233.844 11.271,234.822 9.329 L 236.600 5.799 246.821 5.737 C 252.442 5.703,257.041 5.735,257.041 5.808 C 257.041 5.880,256.838 6.361,256.590 6.875 C 256.341 7.390,256.214 7.811,256.307 7.811 C 256.577 7.811,257.325 5.948,257.162 5.683 C 257.065 5.528,253.424 5.444,246.757 5.444 L 236.501 5.444 235.005 8.462 M255.501 8.928 C 255.242 9.419,254.630 10.554,254.142 11.452 C 253.196 13.190,253.130 13.360,253.474 13.147 C 253.595 13.072,254.096 12.187,254.588 11.180 C 255.081 10.173,255.632 9.169,255.813 8.949 C 255.995 8.728,256.105 8.433,256.058 8.292 C 256.011 8.151,255.760 8.437,255.501 8.928 M167.121 11.480 C 167.543 12.503,173.102 23.426,173.168 23.360 C 173.215 23.314,172.934 22.617,172.544 21.812 C 172.153 21.006,171.834 20.252,171.834 20.134 C 171.834 20.017,171.754 19.886,171.657 19.842 C 171.427 19.740,168.994 14.838,168.994 14.477 C 168.994 14.325,168.888 14.201,168.757 14.201 C 168.627 14.201,168.521 14.001,168.521 13.757 C 168.521 13.512,168.361 13.180,168.166 13.018 C 167.970 12.856,167.811 12.536,167.811 12.308 C 167.811 12.079,167.634 11.746,167.417 11.567 C 167.201 11.389,167.068 11.349,167.121 11.480 M232.322 13.638 C 232.236 13.979,232.011 14.413,231.823 14.602 C 231.634 14.791,231.479 15.142,231.479 15.382 C 231.479 15.622,231.399 15.854,231.302 15.897 C 231.083 15.995,226.742 24.642,226.747 24.970 C 226.752 25.219,226.951 24.842,230.259 18.343 C 232.687 13.574,232.940 13.018,232.677 13.018 C 232.567 13.018,232.407 13.297,232.322 13.638 M252.828 13.885 C 252.703 14.124,251.989 15.491,251.242 16.923 C 250.495 18.355,249.507 20.219,249.047 21.065 C 248.053 22.893,246.900 25.058,245.204 28.284 C 244.519 29.586,243.867 30.752,243.755 30.876 C 243.642 30.999,243.550 31.207,243.550 31.337 C 243.550 31.777,243.984 31.151,244.926 29.349 C 245.437 28.373,246.315 26.722,246.877 25.680 C 248.620 22.450,249.628 20.542,250.565 18.698 C 251.061 17.722,251.523 16.870,251.592 16.805 C 251.879 16.531,253.273 13.667,253.169 13.564 C 253.107 13.502,252.953 13.646,252.828 13.885 M146.746 14.963 C 146.746 15.180,146.845 15.418,146.966 15.493 C 147.087 15.567,147.495 16.239,147.874 16.986 C 149.442 20.080,151.006 22.811,151.006 22.455 C 151.006 22.380,150.756 21.850,150.450 21.278 C 150.144 20.705,149.328 19.172,148.637 17.870 C 147.074 14.924,146.746 14.419,146.746 14.963 M151.006 22.774 C 151.006 22.855,151.384 23.595,151.845 24.419 C 152.307 25.243,152.796 26.210,152.933 26.568 C 153.070 26.926,153.285 27.219,153.411 27.219 C 153.536 27.219,153.140 26.287,152.530 25.148 C 151.478 23.182,151.006 22.447,151.006 22.774 M173.254 23.738 C 173.254 23.971,176.075 29.418,176.084 29.202 C 176.096 28.904,173.516 23.669,173.357 23.669 C 173.301 23.669,173.254 23.700,173.254 23.738 M224.379 29.413 C 223.272 31.656,222.287 33.527,222.189 33.570 C 222.092 33.613,222.011 33.773,222.010 33.925 C 222.010 34.077,221.837 34.521,221.627 34.911 C 220.123 37.710,215.164 47.669,215.238 47.743 C 215.363 47.868,216.568 45.693,216.568 45.343 C 216.568 45.190,216.665 44.964,216.782 44.840 C 217.157 44.447,226.743 25.325,226.563 25.330 C 226.468 25.332,225.485 27.170,224.379 29.413 M153.609 27.729 C 153.609 27.937,153.759 28.232,153.941 28.383 C 154.124 28.535,154.339 28.920,154.419 29.240 C 154.499 29.561,154.662 29.822,154.779 29.822 C 154.996 29.822,154.507 28.673,153.926 27.817 C 153.673 27.443,153.609 27.426,153.609 27.729 M177.411 32.249 C 180.351 38.178,181.405 40.212,181.493 40.124 C 181.631 39.986,176.479 29.597,176.270 29.591 C 176.171 29.588,176.685 30.784,177.411 32.249 M155.033 30.308 C 155.031 30.509,155.132 30.777,155.258 30.903 C 155.383 31.028,156.007 32.141,156.644 33.376 C 157.281 34.611,158.154 36.260,158.585 37.041 C 159.016 37.822,159.689 39.101,160.082 39.882 C 160.474 40.663,160.883 41.337,160.989 41.381 C 161.096 41.424,161.183 41.642,161.183 41.866 C 161.183 42.089,161.284 42.373,161.407 42.497 C 161.531 42.621,162.010 43.441,162.472 44.320 C 162.935 45.198,163.692 46.636,164.155 47.515 C 165.019 49.157,165.444 49.753,165.444 49.325 C 165.444 49.195,165.352 48.988,165.239 48.864 C 165.126 48.740,164.310 47.254,163.425 45.562 C 162.540 43.870,161.555 42.006,161.238 41.420 C 160.920 40.834,160.179 39.450,159.591 38.343 C 159.003 37.237,158.228 35.799,157.869 35.148 C 157.509 34.497,156.832 33.219,156.363 32.308 C 155.237 30.122,155.038 29.822,155.033 30.308 M243.120 32.110 C 241.501 35.149,240.293 37.633,240.435 37.633 C 240.532 37.633,240.901 37.021,241.255 36.272 C 241.609 35.524,242.271 34.229,242.726 33.394 C 243.182 32.560,243.508 31.832,243.453 31.776 C 243.397 31.721,243.248 31.871,243.120 32.110 M239.469 39.023 C 239.123 39.691,238.933 40.237,239.049 40.237 C 239.164 40.237,239.331 39.997,239.420 39.704 C 239.510 39.411,239.741 38.991,239.934 38.771 C 240.127 38.551,240.243 38.244,240.192 38.090 C 240.140 37.936,239.815 38.356,239.469 39.023 M181.546 40.622 C 181.561 41.042,182.249 41.779,182.249 41.376 C 182.249 41.172,182.089 40.872,181.893 40.710 C 181.698 40.548,181.542 40.508,181.546 40.622 M237.656 42.421 C 237.085 43.498,236.245 45.071,235.789 45.917 C 235.334 46.763,234.623 48.095,234.209 48.876 C 231.750 53.522,230.916 55.054,230.735 55.254 C 230.624 55.378,230.533 55.586,230.533 55.716 C 230.533 56.191,231.085 55.384,232.083 53.449 C 232.642 52.366,233.347 51.000,233.650 50.414 C 233.953 49.828,234.254 49.296,234.319 49.231 C 234.435 49.115,234.846 48.339,237.185 43.818 C 237.816 42.598,238.451 41.457,238.597 41.282 C 238.742 41.106,238.824 40.850,238.778 40.713 C 238.732 40.575,238.227 41.344,237.656 42.421 M182.519 42.453 C 182.686 42.826,182.865 43.002,182.918 42.844 C 182.971 42.686,182.834 42.381,182.614 42.166 C 182.240 41.800,182.234 41.818,182.519 42.453 M183.253 43.964 C 183.649 44.869,184.377 46.078,184.378 45.832 C 184.379 45.470,183.322 43.314,183.143 43.314 C 183.047 43.314,183.097 43.607,183.253 43.964 M184.569 46.568 C 184.682 46.796,185.396 48.234,186.154 49.764 C 186.913 51.293,187.585 52.494,187.647 52.432 C 187.749 52.330,186.317 49.276,186.035 48.994 C 185.807 48.767,184.852 46.691,184.852 46.424 C 184.852 46.275,184.742 46.154,184.607 46.154 C 184.453 46.154,184.439 46.307,184.569 46.568 M214.363 49.234 C 214.007 49.920,213.760 50.525,213.813 50.578 C 213.960 50.725,215.171 48.473,215.085 48.213 C 215.043 48.089,214.718 48.548,214.363 49.234 M165.444 49.742 C 165.444 49.867,165.951 50.830,167.732 54.083 C 168.159 54.864,168.628 55.796,168.775 56.154 C 168.921 56.512,169.135 56.805,169.251 56.805 C 169.366 56.805,169.076 56.086,168.606 55.207 C 168.136 54.328,167.325 52.811,166.804 51.834 C 165.908 50.157,165.444 49.443,165.444 49.742 M211.720 54.478 C 210.724 56.474,209.820 58.266,209.711 58.462 C 209.601 58.657,209.156 59.562,208.720 60.473 C 208.285 61.385,207.876 62.183,207.811 62.249 C 207.541 62.518,205.400 67.017,205.496 67.113 C 205.553 67.171,207.432 63.582,209.672 59.139 C 211.911 54.696,213.696 51.013,213.638 50.955 C 213.579 50.897,212.716 52.482,211.720 54.478 M187.722 52.909 C 187.771 53.044,189.026 55.600,190.511 58.589 C 193.011 63.620,194.886 67.520,196.564 71.182 C 196.937 71.995,197.287 72.614,197.343 72.558 C 197.399 72.502,197.180 71.890,196.856 71.199 C 196.532 70.507,196.032 69.408,195.745 68.757 C 195.143 67.393,190.612 58.046,190.295 57.515 C 190.178 57.320,189.855 56.680,189.577 56.095 C 188.490 53.805,187.321 51.798,187.722 52.909 M229.932 56.957 C 229.677 57.459,229.414 57.923,229.349 57.988 C 229.284 58.053,228.654 59.225,227.949 60.592 C 227.243 61.959,226.458 63.450,226.203 63.905 C 225.949 64.361,225.210 65.746,224.561 66.982 C 223.913 68.219,223.287 69.332,223.171 69.456 C 222.891 69.752,222.897 70.125,223.179 69.951 C 223.300 69.876,223.709 69.204,224.088 68.458 C 224.467 67.711,225.220 66.275,225.761 65.266 C 227.995 61.103,228.738 59.704,229.310 58.580 C 229.641 57.929,230.063 57.216,230.247 56.996 C 230.431 56.776,230.540 56.471,230.489 56.320 C 230.439 56.168,230.188 56.455,229.932 56.957 M169.467 57.343 C 169.467 57.552,169.562 57.782,169.678 57.854 C 169.794 57.926,170.330 58.886,170.868 59.988 C 171.407 61.090,171.951 62.056,172.077 62.134 C 172.362 62.310,172.382 61.952,172.105 61.645 C 171.994 61.521,171.397 60.462,170.778 59.290 C 169.504 56.875,169.467 56.821,169.467 57.343 M172.308 62.557 C 172.308 62.739,173.774 65.608,173.964 65.799 C 174.030 65.864,174.443 66.609,174.883 67.456 C 176.049 69.696,177.162 71.786,178.474 74.201 C 179.111 75.373,179.734 76.561,179.860 76.841 C 179.986 77.121,180.205 77.422,180.347 77.510 C 180.592 77.661,180.366 77.208,177.985 72.781 C 176.577 70.163,175.681 68.476,174.091 65.444 C 172.796 62.973,172.308 62.183,172.308 62.557 M203.900 70.216 C 203.160 71.757,202.247 73.632,201.869 74.382 C 201.492 75.133,201.183 75.905,201.183 76.098 C 201.183 76.291,201.085 76.450,200.966 76.450 C 200.846 76.450,200.677 76.769,200.592 77.160 C 200.415 77.963,199.527 78.198,199.527 77.442 C 199.527 76.970,198.836 75.923,198.824 76.377 C 198.820 76.532,198.909 76.716,199.023 76.786 C 199.136 76.856,199.293 77.235,199.372 77.628 C 199.601 78.775,200.266 78.551,200.935 77.101 C 202.174 74.418,204.992 68.497,205.228 68.083 C 205.365 67.843,205.424 67.594,205.360 67.530 C 205.297 67.466,204.639 68.675,203.900 70.216 M222.204 71.396 C 221.864 72.027,221.250 73.169,220.840 73.933 C 220.430 74.696,220.152 75.378,220.222 75.448 C 220.292 75.518,220.516 75.213,220.720 74.770 C 221.337 73.434,222.360 71.561,222.691 71.161 C 222.863 70.954,222.963 70.664,222.914 70.516 C 222.864 70.368,222.545 70.764,222.204 71.396 M197.416 73.018 C 197.423 73.449,198.776 76.102,198.796 75.726 C 198.807 75.523,198.660 75.150,198.469 74.897 C 198.278 74.645,198.118 74.272,198.114 74.069 C 198.110 73.866,197.950 73.493,197.759 73.241 C 197.568 72.988,197.413 72.888,197.416 73.018 M219.750 75.997 C 219.652 76.157,219.230 76.936,218.812 77.729 C 217.044 81.090,214.907 85.100,213.125 88.402 C 212.634 89.314,211.706 91.071,211.064 92.308 C 210.422 93.544,209.667 94.929,209.386 95.385 L 208.876 96.213 208.876 123.195 L 208.876 150.178 229.704 150.302 C 246.016 150.400,250.696 150.494,251.288 150.735 C 251.703 150.904,252.289 151.003,252.590 150.954 C 252.997 150.889,252.835 150.784,251.953 150.541 C 251.003 150.280,246.665 150.198,230.002 150.126 L 209.234 150.035 209.107 149.515 C 208.750 148.053,209.113 96.143,209.484 95.705 C 209.688 95.464,210.221 94.521,210.667 93.609 C 211.114 92.698,211.533 91.899,211.598 91.834 C 211.663 91.769,211.982 91.183,212.308 90.533 C 212.633 89.882,212.953 89.296,213.018 89.231 C 213.083 89.166,213.708 87.994,214.407 86.627 C 216.828 81.894,217.634 80.354,217.751 80.237 C 217.817 80.172,218.136 79.586,218.462 78.936 C 218.787 78.285,219.301 77.343,219.603 76.842 C 219.905 76.341,220.102 75.881,220.041 75.820 C 219.979 75.758,219.849 75.838,219.750 75.997 M180.593 78.118 C 180.592 78.320,180.684 78.586,180.796 78.710 C 180.909 78.834,181.403 79.680,181.894 80.592 C 182.817 82.305,183.432 83.285,183.432 83.044 C 183.432 82.968,183.006 82.131,182.485 81.183 C 181.964 80.236,181.538 79.396,181.537 79.316 C 181.536 79.237,181.324 78.852,181.065 78.462 C 180.786 78.041,180.594 77.901,180.593 78.118 M183.432 83.348 C 183.432 83.534,184.197 85.066,184.360 85.207 C 184.436 85.272,184.904 86.149,185.402 87.156 C 185.899 88.163,186.405 89.048,186.526 89.123 C 186.802 89.294,186.814 88.928,186.543 88.627 C 186.432 88.504,185.781 87.337,185.096 86.036 C 183.951 83.857,183.432 83.019,183.432 83.348 M186.746 89.536 C 186.746 89.631,187.244 90.640,187.853 91.778 C 188.463 92.915,189.146 94.219,189.372 94.675 C 189.942 95.823,190.339 149.295,189.781 149.759 C 189.538 149.960,184.033 150.055,168.986 150.116 C 150.943 150.190,148.395 150.245,147.456 150.579 C 146.561 150.898,146.492 150.963,147.026 150.983 C 147.376 150.995,147.961 150.873,148.328 150.711 C 148.836 150.486,153.882 150.388,169.586 150.297 L 190.178 150.178 190.238 123.042 L 190.298 95.906 188.882 93.149 C 187.505 90.467,186.746 89.182,186.746 89.536 M142.840 151.368 C 142.320 151.539,141.414 151.692,140.828 151.708 C 140.243 151.724,139.231 151.893,138.580 152.085 L 137.396 152.432 138.462 152.327 C 139.464 152.229,143.107 151.644,145.207 151.245 L 146.154 151.065 144.970 151.060 C 144.320 151.058,143.361 151.196,142.840 151.368 M254.083 151.233 C 255.611 151.544,259.920 152.232,260.947 152.328 C 262.125 152.439,259.864 151.891,257.396 151.468 C 255.361 151.120,252.544 150.919,254.083 151.233 M134.320 152.807 L 133.373 153.138 134.438 153.023 C 135.024 152.960,135.929 152.812,136.450 152.694 L 137.396 152.480 136.331 152.478 C 135.746 152.477,134.840 152.625,134.320 152.807 M263.432 152.791 C 265.243 153.243,266.241 153.232,264.970 152.774 C 264.450 152.587,263.598 152.441,263.077 152.450 C 262.131 152.466,262.131 152.466,263.432 152.791 M130.657 153.311 C 130.464 153.386,129.720 153.564,129.002 153.706 C 128.138 153.877,127.689 154.085,127.672 154.320 C 127.658 154.515,127.690 154.547,127.744 154.391 C 127.797 154.235,128.340 154.039,128.950 153.956 C 131.518 153.607,133.242 153.175,132.071 153.174 C 131.485 153.174,130.849 153.235,130.657 153.311 M267.101 153.377 C 267.621 153.495,268.788 153.705,269.694 153.843 C 270.600 153.982,271.423 154.225,271.525 154.385 C 271.626 154.544,271.710 160.018,271.712 166.549 C 271.714 173.079,271.781 178.591,271.860 178.797 C 271.990 179.137,277.153 179.172,327.962 179.172 C 383.141 179.172,383.941 179.178,385.392 179.642 C 386.202 179.900,387.450 180.286,388.166 180.498 C 390.139 181.084,392.343 181.762,395.090 182.628 L 396.452 183.057 396.392 207.919 L 396.331 232.781 387.811 232.952 C 369.213 233.324,3.316 233.049,3.071 232.663 C 2.932 232.443,2.868 222.950,2.902 207.692 L 2.959 183.077 5.325 182.310 C 8.048 181.428,9.254 181.052,11.243 180.467 C 12.024 180.238,13.089 179.879,13.609 179.670 C 14.466 179.326,19.907 179.279,70.986 179.172 C 108.290 179.093,127.443 178.973,127.495 178.817 C 127.596 178.514,15.665 178.607,15.289 178.909 C 15.146 179.024,14.577 179.193,14.025 179.284 C 13.472 179.375,12.966 179.537,12.899 179.645 C 12.833 179.752,12.331 179.916,11.783 180.009 C 11.235 180.101,10.624 180.255,10.423 180.351 C 9.909 180.597,7.836 181.228,6.926 181.416 C 6.504 181.504,6.099 181.673,6.024 181.793 C 5.950 181.914,5.623 182.012,5.298 182.012 C 4.974 182.012,4.234 182.228,3.656 182.491 L 2.604 182.970 2.604 207.927 C 2.604 232.358,2.613 232.888,3.061 233.128 C 3.703 233.471,395.587 233.471,396.229 233.128 C 396.677 232.888,396.686 232.358,396.686 207.945 L 396.686 183.006 395.732 182.509 C 395.208 182.236,394.610 182.012,394.403 182.012 C 394.018 182.012,391.884 181.372,391.235 181.062 C 391.035 180.967,390.503 180.816,390.051 180.726 C 389.600 180.637,389.018 180.471,388.757 180.358 C 388.497 180.245,387.485 179.925,386.509 179.647 C 385.533 179.369,384.489 179.042,384.190 178.920 C 383.857 178.784,362.024 178.698,327.800 178.698 L 271.953 178.698 271.949 166.568 C 271.947 159.896,271.867 154.319,271.772 154.175 C 271.571 153.871,269.069 153.341,267.337 153.236 L 266.154 153.164 267.101 153.377 " stroke="none" fill="#fca365" fill-rule="evenodd"></path><path id="path3" d="M142.485 6.000 C 142.485 6.176,142.765 6.842,143.108 7.480 C 143.450 8.117,144.207 9.544,144.789 10.651 C 145.798 12.568,146.272 13.304,146.272 12.952 C 146.272 12.864,145.938 12.177,145.530 11.425 C 145.122 10.674,144.473 9.473,144.088 8.757 C 143.702 8.041,143.291 7.354,143.173 7.231 C 143.055 7.107,142.959 6.761,142.959 6.462 L 142.959 5.917 153.470 5.917 L 163.982 5.917 165.752 9.408 C 168.264 14.362,168.373 14.580,171.849 21.600 C 173.573 25.084,175.027 27.892,175.080 27.839 C 175.190 27.729,164.648 6.503,164.238 6.008 C 163.838 5.527,142.485 5.519,142.485 6.000 M236.366 6.450 L 235.944 7.219 236.501 6.568 L 237.059 5.917 246.814 5.917 C 253.521 5.917,256.568 5.995,256.568 6.168 C 256.568 6.306,256.675 6.353,256.805 6.272 C 257.632 5.761,256.287 5.680,246.915 5.680 L 236.788 5.680 236.366 6.450 M255.769 7.840 C 255.421 8.512,255.172 9.097,255.216 9.141 C 255.260 9.185,255.589 8.680,255.947 8.018 C 256.304 7.356,256.553 6.770,256.500 6.717 C 256.446 6.663,256.118 7.169,255.769 7.840 M231.768 15.412 C 229.521 19.861,227.726 23.545,227.780 23.599 C 227.834 23.653,229.260 20.948,230.948 17.588 C 232.636 14.228,234.458 10.629,234.998 9.590 C 235.538 8.551,235.951 7.616,235.916 7.512 C 235.882 7.409,234.015 10.964,231.768 15.412 M254.763 9.748 C 254.424 10.289,253.728 11.692,253.732 11.825 C 253.735 11.895,254.061 11.436,254.458 10.804 C 254.854 10.173,255.129 9.607,255.069 9.546 C 255.008 9.485,254.871 9.576,254.763 9.748 M253.424 12.233 C 253.280 12.477,250.916 16.968,250.022 18.698 C 249.652 19.414,249.296 20.053,249.231 20.118 C 249.166 20.183,248.754 20.929,248.315 21.775 C 246.958 24.396,245.297 27.523,244.646 28.685 C 243.992 29.851,243.799 30.495,244.341 29.698 C 244.516 29.441,245.193 28.219,245.845 26.982 C 246.497 25.746,247.406 24.041,247.864 23.195 C 248.673 21.703,249.613 19.934,251.951 15.503 C 252.569 14.331,253.230 13.124,253.420 12.820 C 253.610 12.516,253.715 12.216,253.652 12.153 C 253.590 12.091,253.487 12.126,253.424 12.233 M146.272 13.391 C 146.272 13.524,146.364 13.734,146.477 13.858 C 146.589 13.982,147.242 15.148,147.928 16.450 C 148.614 17.751,149.444 19.324,149.771 19.945 C 150.099 20.565,150.410 21.030,150.463 20.977 C 150.554 20.886,149.801 19.396,147.816 15.740 C 146.763 13.800,146.272 13.054,146.272 13.391 M151.919 23.940 C 152.711 25.457,153.684 27.267,154.082 27.964 C 154.479 28.661,155.035 29.702,155.317 30.278 C 155.600 30.854,155.869 31.210,155.915 31.070 C 155.962 30.930,155.675 30.287,155.278 29.642 C 154.881 28.996,154.556 28.398,154.556 28.312 C 154.556 28.226,154.293 27.740,153.972 27.231 C 153.651 26.722,152.845 25.260,152.182 23.981 C 151.518 22.703,150.863 21.550,150.727 21.420 C 150.590 21.290,151.126 22.424,151.919 23.940 M226.864 25.089 C 226.521 25.766,226.282 26.361,226.333 26.412 C 226.384 26.463,226.709 25.954,227.056 25.281 C 227.403 24.608,227.642 24.013,227.587 23.958 C 227.532 23.903,227.207 24.412,226.864 25.089 M225.444 27.929 C 225.101 28.606,224.862 29.201,224.913 29.252 C 224.964 29.303,225.289 28.794,225.636 28.121 C 225.983 27.448,226.222 26.853,226.167 26.798 C 226.112 26.743,225.787 27.252,225.444 27.929 M175.148 28.262 C 175.148 28.490,176.411 30.769,176.492 30.687 C 176.597 30.583,175.410 28.166,175.254 28.166 C 175.196 28.166,175.148 28.209,175.148 28.262 M222.999 32.812 C 222.098 34.618,220.921 36.944,220.384 37.982 C 219.374 39.935,219.247 40.256,219.639 39.864 C 219.970 39.533,224.843 29.734,224.732 29.623 C 224.680 29.572,223.901 31.007,222.999 32.812 M243.627 30.586 C 243.503 30.752,243.037 31.633,242.594 32.544 C 242.150 33.456,241.640 34.381,241.461 34.602 C 241.282 34.822,241.174 35.119,241.221 35.261 C 241.269 35.404,241.679 34.797,242.133 33.914 C 242.587 33.031,243.206 31.898,243.508 31.398 C 244.028 30.538,244.116 29.937,243.627 30.586 M176.568 31.082 C 176.568 31.314,181.838 41.672,181.916 41.594 C 181.968 41.543,180.832 39.139,179.391 36.253 C 177.133 31.727,176.568 30.693,176.568 31.082 M156.573 32.605 C 156.938 33.289,157.271 33.814,157.313 33.772 C 157.423 33.662,156.506 31.911,156.183 31.612 C 156.033 31.474,156.208 31.921,156.573 32.605 M157.396 34.225 C 157.396 34.355,157.488 34.563,157.599 34.686 C 157.710 34.810,158.357 35.961,159.037 37.243 C 159.716 38.526,160.460 39.911,160.689 40.320 C 160.918 40.730,161.832 42.450,162.720 44.142 C 164.316 47.183,164.970 48.304,164.970 47.993 C 164.970 47.838,163.947 45.856,162.370 42.959 C 161.946 42.178,161.147 40.685,160.597 39.641 C 157.979 34.680,157.396 33.694,157.396 34.225 M240.503 36.391 C 240.364 36.749,239.874 37.724,239.413 38.558 C 238.953 39.393,238.623 40.122,238.681 40.180 C 238.738 40.237,239.111 39.640,239.509 38.852 C 239.907 38.064,240.444 37.041,240.704 36.579 C 240.963 36.117,241.081 35.740,240.966 35.740 C 240.851 35.740,240.643 36.033,240.503 36.391 M218.624 41.464 C 218.278 42.137,218.030 42.724,218.074 42.768 C 218.118 42.812,218.439 42.299,218.787 41.627 C 219.135 40.956,219.383 40.369,219.338 40.324 C 219.292 40.278,218.971 40.792,218.624 41.464 M238.150 40.761 C 237.996 40.915,237.870 41.204,237.870 41.402 C 237.870 41.649,237.989 41.592,238.249 41.221 C 238.664 40.628,238.597 40.315,238.150 40.761 M182.012 41.980 C 182.012 42.283,183.225 44.546,183.331 44.440 C 183.388 44.383,183.158 43.813,182.819 43.174 C 182.165 41.941,182.012 41.714,182.012 41.980 M237.482 42.189 C 237.003 42.868,236.411 44.064,236.507 44.160 C 236.563 44.216,236.900 43.730,237.255 43.078 C 237.849 41.986,237.976 41.490,237.482 42.189 M214.316 49.988 C 212.397 53.802,210.317 57.935,209.693 59.171 C 208.823 60.898,208.293 62.324,208.822 61.519 C 209.244 60.875,217.971 43.217,217.901 43.147 C 217.848 43.095,216.235 46.173,214.316 49.988 M236.020 44.891 C 235.892 45.130,235.366 46.124,234.850 47.101 C 234.334 48.077,233.564 49.515,233.137 50.296 C 231.257 53.740,231.006 54.221,231.006 54.378 C 231.006 54.672,231.630 53.658,232.716 51.598 C 234.656 47.919,235.797 45.805,236.144 45.246 C 236.333 44.942,236.434 44.640,236.369 44.575 C 236.305 44.510,236.147 44.652,236.020 44.891 M183.432 44.779 C 183.432 44.848,183.750 45.531,184.139 46.298 C 184.528 47.065,184.847 47.825,184.849 47.988 C 184.851 48.151,184.959 48.284,185.089 48.284 C 185.219 48.284,185.325 48.491,185.325 48.743 C 185.325 48.996,185.434 49.270,185.566 49.351 C 185.698 49.433,185.966 49.882,186.161 50.348 C 186.356 50.815,186.565 51.147,186.626 51.086 C 186.687 51.025,186.040 49.601,185.189 47.920 C 183.708 44.995,183.432 44.502,183.432 44.779 M164.970 48.393 C 164.970 48.468,165.210 48.927,165.503 49.413 C 165.796 49.899,166.245 50.707,166.501 51.209 C 166.756 51.711,167.007 51.997,167.057 51.846 C 167.108 51.694,167.001 51.390,166.819 51.170 C 166.638 50.949,166.248 50.266,165.952 49.650 C 165.477 48.659,164.970 48.010,164.970 48.393 M186.746 51.628 C 186.746 51.840,186.905 52.146,187.101 52.308 C 187.296 52.470,187.456 52.789,187.456 53.018 C 187.456 53.246,187.621 53.571,187.824 53.739 C 188.153 54.012,188.160 53.971,187.889 53.353 C 187.357 52.139,186.747 51.219,186.746 51.628 M167.739 53.495 C 168.078 54.148,168.394 54.643,168.441 54.596 C 168.570 54.468,167.483 52.309,167.289 52.308 C 167.198 52.308,167.400 52.842,167.739 53.495 M188.166 54.324 C 188.166 54.657,189.136 56.555,189.386 56.709 C 189.513 56.788,189.332 56.283,188.982 55.586 C 188.290 54.210,188.166 54.017,188.166 54.324 M230.619 55.100 C 230.046 56.022,226.859 61.985,225.406 64.852 C 224.912 65.828,224.258 67.037,223.953 67.537 C 223.647 68.038,223.450 68.499,223.514 68.563 C 223.578 68.627,223.761 68.431,223.920 68.127 C 224.080 67.823,224.555 66.935,224.976 66.154 C 225.397 65.373,226.272 63.722,226.919 62.485 C 229.482 57.589,230.611 55.490,230.837 55.201 C 230.967 55.036,231.028 54.854,230.972 54.798 C 230.915 54.742,230.757 54.878,230.619 55.100 M169.361 56.507 C 169.856 57.449,170.301 58.180,170.350 58.132 C 170.458 58.023,169.046 55.360,168.705 55.030 C 168.571 54.899,168.866 55.564,169.361 56.507 M189.598 57.143 C 189.580 57.467,192.233 62.758,192.353 62.637 C 192.409 62.581,191.815 61.272,191.033 59.729 C 190.250 58.186,189.605 57.022,189.598 57.143 M170.414 58.567 C 170.414 58.640,170.741 59.205,171.141 59.823 C 171.911 61.013,171.927 60.990,171.293 59.602 C 170.939 58.828,170.414 58.209,170.414 58.567 M171.834 61.207 C 171.834 61.337,171.925 61.545,172.037 61.669 C 172.216 61.868,173.617 64.448,175.341 67.755 C 175.665 68.376,175.971 68.842,176.022 68.791 C 176.073 68.740,175.617 67.753,175.009 66.597 C 172.343 61.534,171.834 60.669,171.834 61.207 M207.995 62.554 C 207.119 64.277,207.081 64.379,207.329 64.379 C 207.464 64.379,207.574 64.244,207.574 64.079 C 207.574 63.915,207.793 63.371,208.061 62.871 C 208.329 62.370,208.511 61.923,208.465 61.877 C 208.419 61.831,208.208 62.136,207.995 62.554 M192.426 63.049 C 192.426 63.098,192.841 63.977,193.348 65.001 C 193.854 66.026,194.608 67.609,195.023 68.521 C 197.419 73.791,197.688 74.344,197.798 74.233 C 197.856 74.176,197.792 73.932,197.658 73.692 C 197.523 73.451,197.184 72.722,196.903 72.071 C 194.897 67.413,192.426 62.433,192.426 63.049 M206.669 65.109 C 206.498 65.384,206.403 65.654,206.459 65.709 C 206.623 65.873,207.153 65.127,207.063 64.858 C 207.018 64.722,206.841 64.835,206.669 65.109 M205.634 67.337 C 205.301 68.049,205.112 68.579,205.215 68.516 C 205.477 68.354,206.467 66.270,206.342 66.145 C 206.286 66.089,205.967 66.625,205.634 67.337 M204.202 70.240 C 203.845 70.966,203.597 71.605,203.652 71.660 C 203.707 71.715,204.037 71.158,204.386 70.421 C 204.734 69.685,204.982 69.046,204.936 69.001 C 204.890 68.956,204.560 69.514,204.202 70.240 M222.710 69.884 C 222.397 70.436,221.935 71.314,221.682 71.834 C 221.430 72.355,221.071 72.961,220.884 73.182 C 220.696 73.402,220.585 73.708,220.637 73.862 C 220.688 74.017,221.245 73.144,221.875 71.923 C 222.505 70.703,223.128 69.568,223.260 69.403 C 223.392 69.237,223.450 69.051,223.389 68.991 C 223.329 68.931,223.023 69.333,222.710 69.884 M177.425 71.657 C 178.757 74.168,179.408 75.265,179.408 74.998 C 179.408 74.923,179.038 74.180,178.586 73.348 C 178.133 72.515,177.468 71.224,177.107 70.479 C 176.745 69.734,176.365 69.121,176.262 69.118 C 176.159 69.115,176.682 70.257,177.425 71.657 M202.729 73.261 C 202.364 73.982,202.120 74.625,202.185 74.690 C 202.250 74.755,202.589 74.206,202.938 73.470 C 203.762 71.729,203.591 71.558,202.729 73.261 M220.191 74.615 C 220.086 74.778,219.734 75.410,219.408 76.020 C 218.107 78.459,217.065 80.430,216.303 81.893 C 215.863 82.740,215.448 83.485,215.381 83.550 C 215.256 83.672,213.912 86.325,213.763 86.746 C 213.515 87.442,214.546 85.713,215.738 83.432 C 216.487 82.000,217.445 80.189,217.868 79.408 C 218.291 78.627,219.084 77.163,219.630 76.154 C 220.472 74.598,220.821 73.643,220.191 74.615 M197.887 74.737 C 197.878 74.901,197.971 75.221,198.095 75.447 C 198.219 75.673,198.499 76.261,198.718 76.754 C 198.936 77.247,199.157 77.609,199.207 77.558 C 199.258 77.507,198.985 76.785,198.602 75.952 C 198.219 75.119,197.897 74.572,197.887 74.737 M201.147 76.659 C 200.398 78.294,199.773 78.800,199.432 78.047 C 199.359 77.885,199.324 77.964,199.356 78.225 C 199.443 78.941,200.419 78.991,200.684 78.293 C 200.800 77.987,201.173 77.162,201.511 76.461 C 201.850 75.759,202.080 75.137,202.022 75.079 C 201.965 75.022,201.571 75.733,201.147 76.659 M179.408 75.375 C 179.408 75.451,179.648 75.910,179.941 76.395 C 180.234 76.881,180.683 77.689,180.938 78.191 C 181.194 78.693,181.445 78.980,181.495 78.828 C 181.546 78.676,181.433 78.372,181.244 78.152 C 181.056 77.932,180.663 77.246,180.371 76.629 C 179.901 75.633,179.408 74.992,179.408 75.375 M182.177 80.477 C 182.516 81.130,182.832 81.626,182.879 81.578 C 183.008 81.450,181.921 79.292,181.727 79.291 C 181.636 79.290,181.838 79.824,182.177 80.477 M184.373 84.615 C 185.183 86.178,185.942 87.557,186.059 87.680 C 186.338 87.975,186.347 87.514,186.068 87.207 C 185.955 87.083,185.308 85.917,184.630 84.615 C 183.952 83.314,183.285 82.142,183.148 82.012 C 183.012 81.882,183.562 83.053,184.373 84.615 M212.983 88.084 C 212.685 88.649,212.153 89.645,211.800 90.296 C 211.448 90.947,210.574 92.651,209.858 94.083 L 208.557 96.686 208.419 118.343 C 208.343 130.254,208.215 142.190,208.135 144.866 C 208.005 149.241,208.031 149.772,208.391 150.132 C 208.761 150.503,210.262 150.528,228.597 150.475 L 248.402 150.418 228.639 150.298 L 208.876 150.178 208.816 123.419 L 208.755 96.660 209.780 94.662 C 211.404 91.495,213.306 87.956,213.561 87.627 C 213.690 87.462,213.734 87.265,213.660 87.190 C 213.585 87.116,213.280 87.518,212.983 88.084 M186.272 88.136 C 186.272 88.359,187.521 90.428,187.605 90.344 C 187.708 90.241,186.529 88.047,186.370 88.047 C 186.316 88.047,186.272 88.087,186.272 88.136 M187.692 90.793 C 187.692 90.923,187.789 91.131,187.907 91.254 C 188.024 91.378,188.611 92.455,189.209 93.647 L 190.298 95.815 190.238 122.996 L 190.178 150.178 170.533 150.299 L 150.888 150.420 170.651 150.417 L 190.414 150.414 190.474 123.031 L 190.535 95.648 189.323 93.327 C 188.099 90.982,187.692 90.351,187.692 90.793 M148.823 150.664 C 148.750 150.737,147.641 150.953,146.357 151.144 C 145.074 151.336,143.598 151.590,143.077 151.709 L 142.130 151.925 143.314 151.847 C 145.987 151.671,151.430 150.582,149.803 150.550 C 149.336 150.540,148.895 150.592,148.823 150.664 M250.059 150.870 C 252.033 151.337,254.572 151.757,255.976 151.848 L 257.160 151.925 256.213 151.712 C 254.835 151.401,250.941 150.759,249.704 150.638 C 248.753 150.545,248.791 150.570,250.059 150.870 M140.071 152.078 C 139.947 152.203,136.936 152.731,133.964 153.150 C 133.118 153.269,131.893 153.474,131.243 153.604 C 130.592 153.735,129.846 153.883,129.586 153.935 C 129.325 153.986,129.592 154.039,130.178 154.053 C 130.763 154.067,131.765 153.919,132.404 153.725 C 133.044 153.531,134.002 153.372,134.535 153.370 C 135.067 153.369,136.026 153.209,136.665 153.015 C 137.304 152.821,138.262 152.661,138.795 152.659 C 139.328 152.657,140.243 152.505,140.828 152.320 L 141.893 151.984 141.045 151.968 C 140.579 151.960,140.141 152.009,140.071 152.078 M258.462 152.291 C 258.917 152.475,259.779 152.635,260.377 152.645 C 260.974 152.655,261.986 152.821,262.625 153.015 C 263.264 153.209,264.320 153.355,264.970 153.339 L 266.154 153.310 265.089 153.124 C 262.034 152.594,259.198 152.134,258.462 152.049 L 257.633 151.955 258.462 152.291 M266.982 153.707 C 267.438 153.894,268.343 154.042,268.994 154.035 L 270.178 154.024 269.231 153.848 C 268.710 153.752,267.805 153.604,267.219 153.520 L 266.154 153.368 266.982 153.707 M127.968 154.241 C 127.882 154.327,127.809 159.733,127.807 166.252 C 127.806 172.772,127.740 178.346,127.661 178.639 L 127.519 179.172 71.629 179.173 C 33.650 179.174,15.436 179.253,14.793 179.421 C 14.272 179.556,13.633 179.754,13.373 179.860 C 13.112 179.965,12.260 180.238,11.479 180.465 C 10.698 180.692,9.633 181.010,9.112 181.172 C 8.592 181.333,7.527 181.656,6.746 181.889 C 5.964 182.122,4.793 182.500,4.142 182.728 L 2.959 183.142 2.898 207.790 L 2.838 232.437 3.446 232.668 C 4.120 232.924,394.432 233.007,395.711 232.751 L 396.452 232.603 396.392 207.866 L 396.331 183.129 394.911 182.661 C 394.130 182.404,393.141 182.046,392.714 181.866 C 392.286 181.686,391.757 181.538,391.538 181.538 C 391.319 181.538,390.710 181.384,390.185 181.195 C 389.660 181.007,388.166 180.501,386.864 180.071 L 384.497 179.290 328.166 179.172 L 271.834 179.053 271.709 166.627 C 271.639 159.793,271.560 154.175,271.531 154.142 C 271.503 154.109,271.303 154.083,271.088 154.083 C 270.724 154.083,270.724 154.114,271.085 154.513 C 271.435 154.899,271.481 156.204,271.536 167.117 L 271.598 179.290 328.082 179.408 C 381.448 179.520,384.591 179.549,385.023 179.941 C 385.278 180.172,385.853 180.355,386.321 180.355 C 386.783 180.355,387.294 180.515,387.456 180.710 C 387.618 180.905,388.118 181.065,388.567 181.065 C 389.016 181.065,389.543 181.225,389.738 181.420 C 389.933 181.615,390.432 181.779,390.845 181.783 C 391.259 181.787,391.804 181.947,392.057 182.138 C 392.310 182.329,392.856 182.485,393.271 182.485 C 393.685 182.485,394.152 182.639,394.308 182.827 C 394.464 183.014,394.930 183.201,395.343 183.241 L 396.095 183.314 396.155 207.747 L 396.215 232.180 395.563 232.362 C 394.711 232.600,4.580 232.601,3.728 232.362 L 3.077 232.180 3.077 208.062 C 3.077 182.283,3.043 183.195,4.004 183.195 C 4.355 183.195,4.850 183.039,5.103 182.848 C 5.355 182.657,5.835 182.497,6.168 182.493 C 6.501 182.489,6.980 182.329,7.233 182.138 C 7.486 181.947,8.018 181.787,8.416 181.783 C 8.814 181.779,9.347 181.619,9.600 181.428 C 9.852 181.237,10.398 181.077,10.811 181.073 C 11.225 181.068,11.724 180.905,11.919 180.710 C 12.114 180.515,12.619 180.355,13.041 180.355 C 13.464 180.355,14.015 180.169,14.267 179.941 C 14.699 179.549,17.793 179.523,71.156 179.465 L 127.588 179.403 127.817 178.799 C 127.955 178.437,128.047 173.480,128.047 166.460 C 128.047 155.563,128.077 154.704,128.462 154.412 C 128.819 154.141,128.824 154.097,128.501 154.090 C 128.295 154.086,128.055 154.154,127.968 154.241 " stroke="none" fill="#fcb484" fill-rule="evenodd"></path><path id="path4" d="M127.684 166.627 C 127.684 173.201,127.714 175.891,127.751 172.604 C 127.788 169.317,127.788 163.938,127.751 160.651 C 127.714 157.364,127.684 160.053,127.684 166.627 M46.923 233.077 C 64.204 233.110,92.482 233.110,109.763 233.077 C 127.044 233.043,112.905 233.016,78.343 233.016 C 43.781 233.016,29.642 233.043,46.923 233.077 M175.344 233.077 C 188.796 233.111,210.736 233.111,224.102 233.077 C 237.467 233.043,226.462 233.016,199.645 233.016 C 172.828 233.016,161.893 233.043,175.344 233.077 M289.508 233.077 C 306.778 233.110,335.109 233.110,352.466 233.077 C 369.823 233.043,355.692 233.016,321.065 233.016 C 286.438 233.016,272.237 233.043,289.508 233.077 " stroke="none" fill="#fcb47c" fill-rule="evenodd"></path></g></svg>